# xmcd CD database file
#
# Track frame offsets:
#	150
#	14943
#	28023
#	40879
#	55915
#	71330
#	86169
#	101416
#	115679
#	130593
#	145612
#	159612
#	174116
#	187937
#	204182
#	217518
#	229778
#	243642
#	255123
#	266899
#	278756
#	293435
#	306323
#	321783
#
# Disc length: 4413 seconds
#
# Revision: 0
# Processed by: cddbd v1.5.2PL0 Copyright (c) Steve Scherf et al.
# Submitted via: CDex 1.51
#
DISCID=43113b18
DTITLE=Bea Wain - The Complete Recordings, Vol. 1
DYEAR=2002
DGENRE=Jazz
TTITLE0=Stormy Weather
TTITLE1=Oh, You Crazy Moon
TTITLE2=Make With The Kisses
TTITLE3=I Didn't Know What Time It Was
TTITLE4=Blue Rain
TTITLE5=Hello My Love Goodbye
TTITLE6=Dancing In The Dark
TTITLE7=I Don't Stand A Ghost Of A Chance
TTITLE8=Buds Won't Bud
TTITLE9=I'm Nobody's Baby
TTITLE10=I Could Make You Care
TTITLE11=I'm The Lonesomest Gal In Town
TTITLE12=Our Love Affair
TTITLE13=I Don't Want To Cry Anymore
TTITLE14=Let's Be Buddies
TTITLE15=Make It Another Old Fashioned Please
TTITLE16=No Love Blues
TTITLE17=How Did He Look
TTITLE18=Do I Worry
TTITLE19=You Can Depend On Me
TTITLE20=My Sister And I
TTITLE21=Afraid To Say Hello Since You Said Goodbye
TTITLE22=Do I Love You
TTITLE23=You Made Me Love You
EXTD=YEAR: 2002
EXTT0=
EXTT1=
EXTT2=
EXTT3=
EXTT4=
EXTT5=
EXTT6=
EXTT7=
EXTT8=
EXTT9=
EXTT10=
EXTT11=
EXTT12=
EXTT13=
EXTT14=
EXTT15=
EXTT16=
EXTT17=
EXTT18=
EXTT19=
EXTT20=
EXTT21=
EXTT22=
EXTT23=
PLAYORDER=
